<svg width="109" height="119" viewBox="0 0 109 119" fill="none" xmlns="http://www.w3.org/2000/svg">
<path d="M17.6835 21.4589C17.5805 21.7124 17.439 22.0646 17.3639 22.2407C17.291 22.4168 17.0057 23.1132 16.7311 23.7883C16.4565 24.4634 16.1198 25.2905 15.9803 25.6294C15.8409 25.9656 15.5513 26.6753 15.3368 27.2037C15.1223 27.732 14.8135 28.4871 14.6504 28.8846C14.4874 29.2795 14.1742 30.048 13.9533 30.5923C13.7324 31.134 13.4192 31.9024 13.2562 32.3C13.0932 32.6949 12.7843 33.4527 12.5698 33.981C12.3553 34.5093 12.0464 35.2644 11.8834 35.662C11.5981 36.3584 11.272 37.1589 10.4891 39.0773C10.2853 39.5763 9.99147 40.2967 9.83488 40.6783C9.6783 41.0598 9.38014 41.7909 9.16993 42.3059C8.95972 42.8182 8.64226 43.6 8.46208 44.0402C7.85289 45.5291 7.44963 46.519 7.07854 47.4289C6.87477 47.9279 6.56589 48.683 6.39214 49.1099C5.79154 50.5801 5.38827 51.5673 4.99788 52.5252C4.78338 53.0536 4.48737 53.774 4.34365 54.1262C4.19994 54.4784 3.89963 55.2095 3.6787 55.7538C3.45776 56.2955 3.14459 57.0639 2.98157 57.4615C2.81855 57.8564 2.50967 58.6142 2.29516 59.1425C2.08066 59.6708 1.76535 60.4392 1.59803 60.8501C1.43072 61.2611 1.11112 62.0402 0.89018 62.5845C0.669244 63.1262 0.377522 63.8386 0.244531 64.1614C0.109396 64.487 0 64.7645 0 64.7805C0 64.7938 3.2926 70.6586 7.31878 77.8095C11.3428 84.963 14.6397 90.8331 14.644 90.8545C14.6504 90.8892 14.5453 92.0819 14.318 94.5633C14.0842 97.1088 13.8782 99.4089 13.8782 99.4729V99.5529H25.6672H37.4541L37.4433 99.3315C37.4348 99.2114 37.4198 98.7712 37.409 98.3522C37.3962 97.9333 37.3833 97.4824 37.3769 97.3517C37.3726 97.2182 37.3618 96.9301 37.3554 96.7113C37.349 96.4898 37.3404 96.1963 37.334 96.0576C37.3297 95.9188 37.3189 95.6306 37.3125 95.4172C37.2996 94.9876 37.2868 94.5767 37.2696 94.0964C37.2653 93.9203 37.2546 93.6081 37.2482 93.4027C37.2224 92.5435 37.1945 91.6763 37.1838 91.4148C37.1795 91.2601 37.1688 90.9666 37.1623 90.7611C37.1516 90.3742 37.1388 90.0353 37.1194 89.4136C37.113 89.2162 37.1023 88.9147 37.098 88.7466C37.0916 88.5785 37.083 88.2716 37.0765 88.0662C37.0701 87.8607 37.0615 87.5726 37.0551 87.4258C37.0487 87.279 37.0401 86.9775 37.0336 86.7587C37.0272 86.5373 37.0186 86.2384 37.0122 86.0917C37.0079 85.9449 36.9972 85.6514 36.9907 85.438C36.9843 85.2245 36.9757 84.9497 36.9693 84.8243C36.9629 84.6989 36.9543 84.3867 36.9478 84.1305C36.9414 83.8744 36.9328 83.5489 36.9264 83.4101C36.92 83.2714 36.9114 82.9939 36.9049 82.7964C36.8985 82.599 36.8899 82.2974 36.8835 82.1293C36.8771 81.9613 36.8685 81.6597 36.862 81.4623C36.8556 81.2648 36.8449 80.9687 36.8406 80.8086C36.8342 80.6458 36.8149 80.0348 36.7977 79.4478C36.7805 78.8608 36.7612 78.2844 36.7548 78.167C36.7505 78.0496 36.7398 77.7374 36.7333 77.4733C36.7269 77.2091 36.7162 76.9209 36.7119 76.8329C36.7076 76.7448 36.6969 76.4433 36.6904 76.1658C36.684 75.8857 36.6733 75.5868 36.669 75.4988C36.6647 75.4107 36.654 75.0932 36.6454 74.7917C36.6368 74.4902 36.6282 74.2154 36.6261 74.178C36.624 74.1406 36.6197 74.0072 36.6197 73.8792L36.6154 73.6444L27.6063 62.2643C22.6513 56.0046 18.5887 50.8843 18.5801 50.8843C18.5715 50.8843 17.9044 53.1549 17.0979 55.9272L15.6329 60.9675L19.1249 68.0064L22.617 75.0425L22.6449 75.3787C22.6599 75.5628 22.6814 75.8323 22.6942 75.9791C22.705 76.1258 22.8058 77.3745 22.9195 78.754C23.0331 80.1335 23.1683 81.7905 23.2198 82.4362C23.49 85.7448 23.5758 86.8068 23.5694 86.8121C23.5651 86.8174 22.9066 84.6695 22.1065 82.0413C21.3043 79.4104 20.6243 77.1824 20.5921 77.0864C20.5557 76.9743 20.2082 76.3099 19.5947 75.1786C18.2648 72.7265 18.0803 72.3849 17.3746 71.0828C17.0293 70.4451 16.5981 69.6527 16.4201 69.3218C14.1721 65.1807 12.4775 62.0482 12.469 62.0188C12.4625 62.0002 12.5505 61.6693 12.662 61.2851C12.7757 60.8982 13.1811 59.508 13.5651 58.1952C14.8478 53.7927 17.3017 45.3877 18.5908 40.9718C19.2944 38.565 19.9014 36.4704 19.9422 36.3157C20.4077 34.5146 20.723 32.4227 20.8174 30.4803C20.8538 29.7358 20.8302 28.5271 20.7616 27.7373C20.5428 25.1918 19.7491 23.0465 18.4964 21.619C18.2862 21.3789 17.913 21 17.8851 21C17.8765 21 17.7843 21.2081 17.6835 21.4589Z" fill="#004D5B"/>
<path d="M90.5293 21.2081C89.0772 22.6597 88.2149 24.7009 87.9167 27.3771C87.8352 28.1135 87.8181 28.4871 87.8181 29.4983C87.8181 31.1447 87.9425 32.5081 88.2578 34.2745C88.4959 35.6193 88.5667 35.8781 90.021 40.865C91.8035 46.9753 92.4727 49.27 94.3496 55.7004C96.3209 62.4511 96.1793 61.9655 96.1793 61.9975C96.1793 62.0108 96.0034 62.347 95.7889 62.7446C95.5744 63.1395 94.8258 64.519 94.1287 65.8077C92.876 68.1158 92.003 69.7274 91.1664 71.2696C90.9305 71.7019 90.1432 73.1561 89.4161 74.4982L88.0926 76.9396L87.6572 78.3671C87.4191 79.1516 87.0201 80.4537 86.7756 81.2622C86.5289 82.068 86.0441 83.6556 85.7009 84.7896C85.3556 85.9209 85.0703 86.8441 85.0681 86.8415C85.0617 86.8361 85.0896 86.4946 85.1561 85.6781C85.1754 85.4646 85.3491 83.3274 85.5443 80.9286C85.7395 78.5299 85.9283 76.2272 85.9626 75.811L86.0248 75.0559L86.1299 74.8371C86.1878 74.717 86.5032 74.0766 86.8313 73.4176C87.7172 71.6325 88.8305 69.3885 89.7915 67.454C90.2612 66.5068 90.8447 65.3301 91.0892 64.8392C91.3337 64.3482 91.7263 63.5557 91.9622 63.0781C92.2003 62.6005 92.5285 61.9361 92.6958 61.6026C92.8631 61.2664 92.9983 60.9756 92.9983 60.9595C92.9983 60.9409 92.9639 60.8128 92.9232 60.674C92.8824 60.5353 92.6915 59.8762 92.4963 59.2092C92.3033 58.5421 91.7949 56.7944 91.368 55.3269C90.9412 53.8594 90.4757 52.2638 90.3363 51.7808C90.1947 51.2952 90.0746 50.895 90.0682 50.8869C90.0532 50.8683 90.3363 50.5134 80.6923 62.6966C74.238 70.8507 72.0286 73.6577 72.0286 73.7031C72.0286 73.8044 71.9964 74.8744 71.9879 75.0452C71.9836 75.1332 71.975 75.4027 71.9664 75.6455C71.96 75.8883 71.9514 76.1925 71.945 76.3259C71.9385 76.4567 71.9299 76.7769 71.9235 77.033C71.9171 77.2892 71.9063 77.5907 71.9021 77.7001C71.8978 77.8095 71.887 78.0923 71.8806 78.3271C71.8742 78.5619 71.8656 78.8688 71.8592 79.0075C71.8549 79.1463 71.8441 79.4531 71.8377 79.6879C71.8313 79.9227 71.8227 80.2162 71.8163 80.3416C71.812 80.467 71.8012 80.7552 71.7948 80.982C71.7884 81.2088 71.7798 81.5157 71.7733 81.6624C71.7669 81.8092 71.7583 82.108 71.7519 82.3295C71.7455 82.5483 71.7369 82.8498 71.7304 82.9965C71.724 83.1433 71.7154 83.4421 71.709 83.6636C71.7026 83.8824 71.6918 84.1786 71.6875 84.3173C71.6811 84.4561 71.6725 84.7576 71.6661 84.9844C71.6597 85.2112 71.6511 85.5127 71.6446 85.6514C71.6382 85.7902 71.6296 86.0783 71.6232 86.2918C71.6125 86.6547 71.6082 86.8201 71.5803 87.6126C71.5395 88.848 71.5288 89.1895 71.5159 89.6271C71.5095 89.8406 71.5009 90.1341 71.4945 90.2808C71.4881 90.4276 71.4795 90.7211 71.473 90.9345C71.4666 91.148 71.4559 91.4468 71.4516 91.6016C71.4409 91.8631 71.3915 93.4 71.3658 94.2698C71.3594 94.4833 71.3508 94.7768 71.3443 94.9236C71.3379 95.0703 71.3293 95.3772 71.3229 95.604C71.3165 95.8308 71.3079 96.1243 71.3014 96.2577C71.295 96.3884 71.2864 96.6899 71.28 96.9247C71.2736 97.1595 71.2628 97.4344 71.2585 97.5384C71.2543 97.6398 71.2435 97.9653 71.2371 98.2589C71.2285 98.5524 71.2199 98.8325 71.2156 98.8832C71.2114 98.9339 71.2049 99.102 71.2028 99.2568L71.1985 99.5396L82.9896 99.5476L94.7808 99.5529L94.7679 99.4409C94.7572 99.3288 94.7078 98.8032 94.5126 96.6312C94.459 96.0442 94.3668 95.0303 94.3067 94.3766C94.2467 93.7228 94.1501 92.6636 94.0922 92.0205L93.985 90.8518L101.31 77.8335C105.339 70.6746 108.635 64.8018 108.635 64.7831C108.635 64.7538 107.87 62.8567 107.327 61.5439C107.224 61.2931 106.919 60.5486 106.651 59.8896C106.383 59.2279 106.055 58.4247 105.922 58.1019C105.789 57.779 105.497 57.0639 105.272 56.5143C105.049 55.9646 104.573 54.7986 104.217 53.9261C103.861 53.0536 103.395 51.9115 103.183 51.3912C102.97 50.8709 102.657 50.1078 102.49 49.6969C102.07 48.6696 101.591 47.501 101.128 46.3616C100.913 45.8333 100.604 45.0755 100.441 44.6806C100.148 43.9602 99.9803 43.552 98.7254 40.4781C97.5157 37.5137 97.329 37.0575 97.0094 36.2757C96.4946 35.0163 96.0528 33.9356 95.6366 32.9137C95.4221 32.3854 95.1068 31.6169 94.9395 31.206C94.4268 29.9493 93.9571 28.8019 93.2235 27.0035C92.8374 26.0563 92.3977 24.981 92.2475 24.6155C92.0974 24.2473 91.7434 23.3827 91.4624 22.6943C90.7975 21.064 90.7803 21.0187 90.7567 21.008C90.7438 21.0053 90.643 21.0934 90.5293 21.2081Z" fill="#004D5B"/>
<path d="M52.532 0.0866852C47.1368 0.68421 43 5.28184 43 10.6762C43 12.1866 43.3275 13.8464 43.7929 14.7261C43.9997 15.0746 44.017 15.2572 43.8791 15.307C43.7757 15.3402 43.6895 15.722 43.6895 16.1867V17H46.1199H48.5503L47.6884 16.0871C44.5341 12.6679 44.7582 7.75494 48.24 4.58473C52.7388 0.485035 60.2885 2.427 62.1329 8.16989C62.5121 9.34834 62.581 11.2903 62.288 12.5186C62.0122 13.7136 61.1331 15.2572 60.2196 16.1701L59.3922 17H61.8226H64.2358L64.1841 15.9543C64.1496 15.224 64.2358 14.5933 64.5116 13.7634C65.8733 9.6969 64.3047 4.8171 60.8401 2.27761C58.3235 0.435242 55.6691 -0.261873 52.532 0.0866852Z" fill="#004D5B"/>
<path d="M80.622 17.4709C79.83 18.7659 74.808 20.2964 68.67 21.1037C64.08 21.7092 62.172 21.7933 53.82 21.7933C46.944 21.7933 44.928 21.7428 42.48 21.4905C34.83 20.7001 29.412 19.3546 27.702 17.8409L27 17.2186V38.7968V60.3581L27.558 60.8963C29.448 62.6454 35.658 64.0413 44.91 64.7982C48.24 65.0673 59.67 65.0673 63 64.7982C72.468 64.0413 78.768 62.595 80.442 60.7954L81 60.2067V38.6118C81 26.7211 80.982 17 80.964 17C80.928 17 80.784 17.2186 80.622 17.4709ZM33.3 34.6594C35.55 34.9453 36.414 35.2481 37.134 36.0049C38.07 36.9636 38.196 37.8213 38.124 42.6146C38.07 46.3315 38.034 46.7351 37.71 47.2565C37.098 48.2151 36.486 48.5347 35.226 48.5347C34.614 48.5347 33.408 48.4338 32.544 48.2992L30.96 48.0806V41.185V34.2894L31.374 34.3735C31.59 34.424 32.454 34.5585 33.3 34.6594ZM77.904 35.3658L77.85 36.4254L76.32 36.644C73.71 37.014 73.98 36.7617 73.98 38.7968V40.5964L74.664 40.4954C75.024 40.445 75.726 40.3441 76.194 40.2768L77.058 40.1759L77.004 41.2355L76.95 42.3118L75.51 42.48L74.07 42.6482L74.016 44.5319C73.962 46.7351 73.746 46.5837 76.266 46.1969C77.076 46.0792 77.796 46.0119 77.85 46.0624C77.904 46.1128 77.94 46.5837 77.94 47.1051V48.0638L75.924 48.3497C74.808 48.501 73.35 48.6692 72.666 48.7365L71.46 48.8374L71.496 42.0427L71.55 35.2481L72.18 35.1135C72.702 35.0126 76.86 34.4408 77.724 34.3399C77.904 34.3231 77.94 34.5922 77.904 35.3658ZM70.74 36.3245V37.3167L69.57 37.4345L68.4 37.5522V43.321C68.4 49.8297 68.544 49.2915 66.852 49.2915H65.88V43.5228V37.7708L64.71 37.8213L63.54 37.8886V36.8626C63.54 36.0049 63.594 35.8367 63.864 35.8199C64.026 35.8031 65.232 35.7022 66.51 35.5844C67.806 35.4835 69.282 35.3658 69.804 35.3658L70.74 35.3322V36.3245ZM43.776 35.6685C44.676 35.904 45.522 36.5936 45.918 37.4345C46.224 38.0399 46.26 38.595 46.26 42.5641C46.26 45.0196 46.17 47.2901 46.08 47.6097C45.99 47.946 45.612 48.4674 45.27 48.787C44.712 49.2915 44.496 49.3756 43.488 49.4261C41.58 49.5438 40.248 48.8879 39.582 47.5256C39.276 46.9201 39.24 46.3483 39.24 42.2782C39.24 39.4359 39.312 37.5354 39.438 37.2327C40.014 35.7863 41.778 35.164 43.776 35.6685ZM61.65 36.0049C61.794 36.2067 64.08 49.342 63.99 49.4261C63.954 49.4765 63.396 49.5438 62.766 49.5774L61.614 49.6783L61.488 48.8542C61.218 47.1892 61.326 47.2733 59.85 47.2733H58.554L58.338 48.5347L58.122 49.7961H57.042C56.124 49.7961 55.98 49.7624 55.98 49.4765C55.98 49.1065 58.104 36.5263 58.23 36.2235C58.284 36.089 58.842 36.0049 59.796 35.9544C60.624 35.9376 61.344 35.8872 61.416 35.8704C61.488 35.8535 61.578 35.904 61.65 36.0049ZM50.76 36.6272C50.868 36.9804 51.354 38.6286 51.84 40.2936L52.704 43.321L52.776 39.705L52.83 36.089H53.91H54.99V42.9005V49.712H53.748H52.506L51.228 45.2719L49.95 40.8486L49.86 45.2719L49.77 49.712L48.78 49.6447C48.24 49.6279 47.736 49.5606 47.664 49.5102C47.574 49.4765 47.52 46.4156 47.52 42.7155V36.0049H49.05H50.562L50.76 36.6272Z" fill="#004D5B"/>
<path d="M34.0333 40.9619L34.0833 45.9238L34.8 45.9762C36.0167 46.0635 36 46.1684 36 41.2065C36 36.2271 36.0167 36.297 34.6833 36.1048L34 36L34.0333 40.9619Z" fill="#004D5B"/>
<path d="M42.3167 37.2262C42.0167 37.4638 42 37.7183 42 41.8755C42 45.9819 42.0167 46.3043 42.3167 46.6437C42.5 46.8473 42.8333 47 43.0833 47C43.9667 47 44 46.8133 44 42.0452V37.6334L43.6 37.311C43.1333 36.9208 42.7667 36.9038 42.3167 37.2262Z" fill="#004D5B"/>
<path d="M59.5693 41.4233C59.3308 42.8872 59.0924 44.2847 59.0373 44.5342C58.9456 45 58.9456 45 59.9728 45C60.5414 45 61 44.9335 61 44.8503C61 44.7338 60.248 40.2255 60.0278 39.0111C60.0095 38.878 59.7894 39.9593 59.5693 41.4233Z" fill="#004D5B"/>
<path d="M5.87891 115V106.41H9.5293C10.2871 106.41 10.8438 106.455 11.1992 106.545C11.793 106.693 12.2363 107 12.5293 107.465C12.7793 107.859 12.9043 108.311 12.9043 108.818C12.9043 110.193 12.1484 110.99 10.6367 111.209C11.0664 111.459 11.4336 111.766 11.7383 112.129C11.918 112.348 12.1895 112.746 12.5527 113.324L13.6016 115H11.5273L10.2734 113.131C9.89844 112.572 9.69336 112.27 9.6582 112.223C9.36133 111.836 9.08789 111.598 8.83789 111.508C8.6543 111.445 8.36328 111.414 7.96484 111.414H7.61328V115H5.87891ZM7.61328 110.043H8.89648C9.5332 110.043 9.89844 110.037 9.99219 110.025C10.457 109.975 10.7734 109.824 10.9414 109.574C11.0586 109.402 11.1172 109.188 11.1172 108.93C11.1172 108.332 10.8223 107.986 10.2324 107.893C10.1074 107.873 9.68555 107.863 8.9668 107.863H7.61328V110.043ZM22.291 115H20.4043L19.6543 113.049H16.2207L15.5117 115H13.6719L17.0176 106.41H18.8516L22.291 115ZM19.0977 111.602L17.9141 108.414L16.7539 111.602H19.0977ZM30.9629 115H29.0762L28.3262 113.049H24.8926L24.1836 115H22.3438L25.6895 106.41H27.5234L30.9629 115ZM27.7695 111.602L26.5859 108.414L25.4258 111.602H27.7695ZM31.8945 115V106.41H33.6289V109.791H37.0273V106.41H38.7617V115H37.0273V111.244H33.6289V115H31.8945ZM43.9004 115V106.41H50.2695V107.863H45.6348V109.768H49.9473V111.215H45.6348V113.553H50.4336V115H43.9004ZM55.25 115V106.41H58.9004C59.6582 106.41 60.2148 106.455 60.5703 106.545C61.1641 106.693 61.6074 107 61.9004 107.465C62.1504 107.859 62.2754 108.311 62.2754 108.818C62.2754 110.193 61.5195 110.99 60.0078 111.209C60.4375 111.459 60.8047 111.766 61.1094 112.129C61.2891 112.348 61.5605 112.746 61.9238 113.324L62.9727 115H60.8984L59.6445 113.131C59.2695 112.572 59.0645 112.27 59.0293 112.223C58.7324 111.836 58.459 111.598 58.209 111.508C58.0254 111.445 57.7344 111.414 57.3359 111.414H56.9844V115H55.25ZM56.9844 110.043H58.2676C58.9043 110.043 59.2695 110.037 59.3633 110.025C59.8281 109.975 60.1445 109.824 60.3125 109.574C60.4297 109.402 60.4883 109.188 60.4883 108.93C60.4883 108.332 60.1934 107.986 59.6035 107.893C59.4785 107.873 59.0566 107.863 58.3379 107.863H56.9844V110.043ZM63.5645 110.758C63.5645 109.32 63.9629 108.193 64.7598 107.377C65.4785 106.635 66.4648 106.264 67.7188 106.264C69.043 106.264 70.0781 106.68 70.8242 107.512C71.5391 108.305 71.8965 109.373 71.8965 110.717C71.8965 112.053 71.541 113.115 70.8301 113.904C70.0879 114.732 69.0586 115.146 67.7422 115.146C66.4219 115.146 65.3906 114.742 64.6484 113.934C63.9258 113.148 63.5645 112.09 63.5645 110.758ZM65.3516 110.699C65.3516 111.539 65.5352 112.223 65.9023 112.75C66.3242 113.359 66.9355 113.664 67.7363 113.664C68.5449 113.664 69.1562 113.357 69.5703 112.744C69.9258 112.217 70.1035 111.527 70.1035 110.676C70.1035 109.816 69.9277 109.133 69.5762 108.625C69.1699 108.039 68.5566 107.746 67.7363 107.746C66.916 107.746 66.2988 108.043 65.8848 108.637C65.5293 109.152 65.3516 109.84 65.3516 110.699ZM72.8164 112.205L74.5039 112.041C74.6992 113.139 75.3242 113.688 76.3789 113.688C76.8164 113.688 77.1895 113.602 77.498 113.43C77.877 113.215 78.0664 112.906 78.0664 112.504C78.0664 112.098 77.7988 111.801 77.2637 111.613C77.0684 111.543 76.6055 111.418 75.875 111.238C74.9453 111.008 74.293 110.725 73.918 110.389C73.3906 109.916 73.127 109.34 73.127 108.66C73.127 108.191 73.2578 107.771 73.5195 107.4C73.7812 107.029 74.1328 106.75 74.5742 106.562C75.0391 106.363 75.6016 106.264 76.2617 106.264C77.207 106.264 77.9629 106.457 78.5293 106.844C79.1816 107.293 79.5234 107.967 79.5547 108.865L77.8203 108.941C77.7422 108.488 77.5742 108.164 77.3164 107.969C77.0742 107.789 76.7168 107.699 76.2441 107.699C75.7402 107.699 75.3457 107.803 75.0605 108.01C74.877 108.143 74.7852 108.32 74.7852 108.543C74.7852 108.746 74.8711 108.92 75.043 109.064C75.25 109.24 75.7852 109.439 76.6484 109.662C77.6133 109.912 78.2344 110.109 78.5117 110.254C79.3711 110.711 79.8008 111.459 79.8008 112.498C79.8008 113.018 79.6582 113.488 79.373 113.91C79.0918 114.328 78.7109 114.637 78.2305 114.836C77.7305 115.047 77.1074 115.152 76.3613 115.152C74.2285 115.152 73.0469 114.17 72.8164 112.205ZM81.2656 115V106.41H83V109.791H86.3984V106.41H88.1328V115H86.3984V111.244H83V115H81.2656ZM97.6777 115H95.791L95.041 113.049H91.6074L90.8984 115H89.0586L92.4043 106.41H94.2383L97.6777 115ZM94.4844 111.602L93.3008 108.414L92.1406 111.602H94.4844ZM98.6211 115V106.41H100.309L103.824 112.146V106.41H105.436V115H103.695L100.232 109.398V115H98.6211Z" fill="#004D5B"/>
</svg>
